NotoSerif-Bold.ufo
<glyph name="tbar" format="2">
  <advance width="444"/>
  <unicode hex="0167"/>
  <anchor x="222" y="0" name="bottom"/>
  <anchor x="222" y="661" name="top"/>
  <anchor x="222" y="268" name="center"/>
  <anchor x="424" y="661" name="topright"/>
  <outline>
    <contour>
      <point x="27" y="274" type="line"/>
      <point x="396" y="274" type="line"/>
      <point x="396" y="331" type="line"/>
      <point x="27" y="331" type="line"/>
    </contour>
    <component base="t"/>
  </outline>
</glyph>
<glyph name="uni1AB9" format="2">
  <unicode hex="1AB9"/>
  <anchor x="-460" y="82" name="_bottom"/>
  <anchor x="-460" y="-240" name="bottom"/>
  <outline>
    <contour>
      <point x="-468" y="-240" type="line"/>
      <point x="-368" y="26" type="line"/>
      <point x="-451" y="52" type="line"/>
      <point x="-551" y="-213" type="line"/>
    </contour>
  </outline>
</glyph>
<glyph name="uni1D09" format="2">
  <advance width="370"/>
  <unicode hex="1D09"/>
  <anchor x="185" y="-218" name="bottom"/>
  <anchor x="185" y="536" name="top"/>
  <outline>
    <contour>
      <point x="14" y="0" type="line"/>
      <point x="356" y="0" type="line"/>
      <point x="356" y="64" type="line"/>
      <point x="322" y="64" type="line" smooth="yes"/>
      <point x="295" y="64"/>
      <point x="279" y="77"/>
      <point x="279" y="111" type="curve" smooth="yes"/>
      <point x="279" y="425" type="line" smooth="yes"/>
      <point x="279" y="460"/>
      <point x="295" y="471"/>
      <point x="322" y="471" type="curve" smooth="yes"/>
      <point x="356" y="471" type="line"/>
      <point x="356" y="536" type="line"/>
      <point x="14" y="536" type="line"/>
      <point x="14" y="471" type="line"/>
      <point x="49" y="471" type="line" smooth="yes"/>
      <point x="74" y="471"/>
      <point x="91" y="460"/>
      <point x="91" y="425" type="curve" smooth="yes"/>
      <point x="91" y="111" type="line" smooth="yes"/>
      <point x="91" y="77"/>
      <point x="74" y="64"/>
      <point x="49" y="64" type="curve" smooth="yes"/>
      <point x="14" y="64" type="line"/>
    </contour>
    <contour>
      <point x="185" y="-218" type="curve" smooth="yes"/>
      <point x="242" y="-218"/>
      <point x="292" y="-190"/>
      <point x="292" y="-138" type="curve" smooth="yes"/>
      <point x="292" y="-84"/>
      <point x="242" y="-59"/>
      <point x="185" y="-59" type="curve" smooth="yes"/>
      <point x="125" y="-59"/>
      <point x="80" y="-84"/>
      <point x="80" y="-138" type="curve" smooth="yes"/>
      <point x="80" y="-190"/>
      <point x="125" y="-218"/>
    </contour>
  </outline>
</glyph>
<glyph name="uni1D24" format="2">
  <advance width="539"/>
  <unicode hex="1D24"/>
  <anchor x="283" y="0" name="bottom"/>
  <anchor x="266" y="760" name="top"/>
  <outline>
    <contour>
      <point x="284" y="-11" type="curve" smooth="yes"/>
      <point x="444" y="-11"/>
      <point x="516" y="56"/>
      <point x="516" y="123" type="curve" smooth="yes"/>
      <point x="516" y="189"/>
      <point x="458" y="207"/>
      <point x="351" y="207" type="curve"/>
      <point x="351" y="101"/>
      <point x="324" y="57"/>
      <point x="280" y="57" type="curve" smooth="yes"/>
      <point x="240" y="57"/>
      <point x="219" y="91"/>
      <point x="219" y="150" type="curve" smooth="yes"/>
      <point x="219" y="222"/>
      <point x="242" y="277"/>
      <point x="353" y="323" type="curve"/>
      <point x="353" y="418" type="line"/>
      <point x="471" y="466"/>
      <point x="523" y="514"/>
      <point x="523" y="603" type="curve" smooth="yes"/>
      <point x="523" y="707"/>
      <point x="422" y="769"/>
      <point x="262" y="769" type="curve" smooth="yes"/>
      <point x="102" y="769"/>
      <point x="30" y="702"/>
      <point x="30" y="635" type="curve" smooth="yes"/>
      <point x="30" y="569"/>
      <point x="88" y="551"/>
      <point x="195" y="551" type="curve"/>
      <point x="195" y="657"/>
      <point x="222" y="701"/>
      <point x="266" y="701" type="curve" smooth="yes"/>
      <point x="306" y="701"/>
      <point x="327" y="667"/>
      <point x="327" y="608" type="curve" smooth="yes"/>
      <point x="327" y="536"/>
      <point x="304" y="482"/>
      <point x="193" y="435" type="curve"/>
      <point x="193" y="340" type="line"/>
      <point x="75" y="292"/>
      <point x="23" y="244"/>
      <point x="23" y="155" type="curve" smooth="yes"/>
      <point x="23" y="51"/>
      <point x="124" y="-11"/>
    </contour>
  </outline>
</glyph>
<glyph name="uni1FC1" format="2">
  <advance width="270"/>
  <unicode hex="1FC1"/>
  <anchor x="136" y="536" name="_top"/>
  <outline>
    <contour>
      <point x="-43" y="759" type="curve"/>
      <point x="25" y="759" type="line"/>
      <point x="25" y="780"/>
      <point x="38" y="805"/>
      <point x="62" y="805" type="curve" smooth="yes"/>
      <point x="98" y="805"/>
      <point x="143" y="766"/>
      <point x="203" y="766" type="curve" smooth="yes"/>
      <point x="270" y="766"/>
      <point x="311" y="809"/>
      <point x="315" y="891" type="curve"/>
      <point x="246" y="891" type="line"/>
      <point x="244" y="867"/>
      <point x="231" y="843"/>
      <point x="209" y="843" type="curve" smooth="yes"/>
      <point x="176" y="843"/>
      <point x="134" y="884"/>
      <point x="75" y="884" type="curve" smooth="yes"/>
      <point x="6" y="884"/>
      <point x="-39" y="839"/>
    </contour>
    <contour>
      <point x="27" y="593" type="curve" smooth="yes"/>
      <point x="60" y="593"/>
      <point x="93" y="612"/>
      <point x="93" y="660" type="curve" smooth="yes"/>
      <point x="93" y="708"/>
      <point x="60" y="726"/>
      <point x="27" y="726" type="curve" smooth="yes"/>
      <point x="-6" y="726"/>
      <point x="-38" y="708"/>
      <point x="-38" y="660" type="curve" smooth="yes"/>
      <point x="-38" y="612"/>
      <point x="-6" y="593"/>
    </contour>
    <contour>
      <point x="244" y="593" type="curve" smooth="yes"/>
      <point x="275" y="593"/>
      <point x="309" y="612"/>
      <point x="309" y="660" type="curve" smooth="yes"/>
      <point x="309" y="708"/>
      <point x="275" y="726"/>
      <point x="244" y="726" type="curve" smooth="yes"/>
      <point x="209" y="726"/>
      <point x="177" y="708"/>
      <point x="177" y="660" type="curve" smooth="yes"/>
      <point x="177" y="612"/>
      <point x="209" y="593"/>
    </contour>
  </outline>
</glyph>
<glyph name="uni1FEF" format="2">
  <advance width="815"/>
  <unicode hex="1FEF"/>
  <anchor x="421" y="536" name="_top"/>
  <anchor x="421" y="760" name="top"/>
  <outline>
    <contour>
      <point x="420" y="578" type="curve"/>
      <point x="517" y="578" type="line"/>
      <point x="517" y="595" type="line"/>
      <point x="504" y="645"/>
      <point x="497" y="708"/>
      <point x="495" y="760" type="curve"/>
      <point x="325" y="760" type="line"/>
      <point x="325" y="747" type="line"/>
      <point x="351" y="691"/>
      <point x="380" y="633"/>
    </contour>
  </outline>
</glyph>
<glyph name="uni1FFD" format="2">
  <advance width="815"/>
  <unicode hex="1FFD"/>
  <anchor x="396" y="536" name="_top"/>
  <anchor x="396" y="760" name="top"/>
  <outline>
    <contour>
      <point x="300" y="578" type="line"/>
      <point x="397" y="578" type="line"/>
      <point x="444" y="641"/>
      <point x="463" y="683"/>
      <point x="492" y="747" type="curve"/>
      <point x="492" y="760" type="line"/>
      <point x="322" y="760" type="line"/>
      <point x="319" y="708"/>
      <point x="313" y="652"/>
      <point x="300" y="595" type="curve"/>
    </contour>
  </outline>
</glyph>
<glyph name="plussuperior" format="2">
  <advance width="405"/>
  <unicode hex="207A"/>
  <outline>
    <contour>
      <point x="162" y="302" type="line"/>
      <point x="243" y="302" type="line"/>
      <point x="243" y="443" type="line"/>
      <point x="382" y="443" type="line"/>
      <point x="382" y="520" type="line"/>
      <point x="243" y="520" type="line"/>
      <point x="243" y="661" type="line"/>
      <point x="162" y="661" type="line"/>
      <point x="162" y="520" type="line"/>
      <point x="24" y="520" type="line"/>
      <point x="24" y="443" type="line"/>
      <point x="162" y="443" type="line"/>
    </contour>
  </outline>
</glyph>
<glyph name="parenleftsuperior" format="2">
  <advance width="250"/>
  <unicode hex="207D"/>
  <outline>
    <contour>
      <point x="243" y="196" type="curve"/>
      <point x="243" y="240" type="line"/>
      <point x="149" y="303"/>
      <point x="135" y="369"/>
      <point x="135" y="491" type="curve" smooth="yes"/>
      <point x="135" y="612"/>
      <point x="149" y="682"/>
      <point x="243" y="746" type="curve"/>
      <point x="243" y="788" type="line"/>
      <point x="97" y="737"/>
      <point x="16" y="674"/>
      <point x="16" y="491" type="curve" smooth="yes"/>
      <point x="16" y="302"/>
      <point x="87" y="247"/>
    </contour>
  </outline>
</glyph>
<glyph name="parenrightsuperior" format="2">
  <advance width="250"/>
  <unicode hex="207E"/>
  <outline>
    <contour>
      <point x="7" y="196" type="line"/>
      <point x="153" y="247"/>
      <point x="234" y="310"/>
      <point x="234" y="493" type="curve" smooth="yes"/>
      <point x="234" y="682"/>
      <point x="163" y="737"/>
      <point x="7" y="788" type="curve"/>
      <point x="7" y="744" type="line"/>
      <point x="101" y="681"/>
      <point x="115" y="615"/>
      <point x="115" y="493" type="curve"/>
      <point x="115" y="372"/>
      <point x="101" y="302"/>
      <point x="7" y="238" type="curve"/>
    </contour>
  </outline>
</glyph>
<glyph name="uni20A9" format="2">
  <advance width="1082"/>
  <unicode hex="20A9"/>
  <outline>
    <contour>
      <point x="261" y="0" type="line"/>
      <point x="405" y="0" type="line"/>
      <point x="497" y="293" type="line"/>
      <point x="628" y="293" type="line"/>
      <point x="720" y="0" type="line"/>
      <point x="849" y="0" type="line"/>
      <point x="925" y="293" type="line"/>
      <point x="1076" y="293" type="line"/>
      <point x="1076" y="361" type="line"/>
      <point x="943" y="361" type="line"/>
      <point x="955" y="410" type="line"/>
      <point x="1076" y="410" type="line"/>
      <point x="1076" y="478" type="line"/>
      <point x="972" y="478" type="line"/>
      <point x="994" y="575" type="line" smooth="yes"/>
      <point x="1009" y="642"/>
      <point x="1031" y="653"/>
      <point x="1070" y="653" type="curve" smooth="yes"/>
      <point x="1089" y="653" type="line"/>
      <point x="1089" y="714" type="line"/>
      <point x="815" y="714" type="line"/>
      <point x="815" y="653" type="line"/>
      <point x="838" y="653" type="line" smooth="yes"/>
      <point x="882" y="653"/>
      <point x="902" y="641"/>
      <point x="902" y="607" type="curve" smooth="yes"/>
      <point x="902" y="591"/>
      <point x="898" y="568"/>
      <point x="895" y="552" type="curve" smooth="yes"/>
      <point x="881" y="478" type="line"/>
      <point x="729" y="478" type="line"/>
      <point x="656" y="709" type="line"/>
      <point x="532" y="709" type="line"/>
      <point x="469" y="478" type="line"/>
      <point x="315" y="478" type="line"/>
      <point x="300" y="538" type="line" smooth="yes"/>
      <point x="295" y="559"/>
      <point x="288" y="594"/>
      <point x="288" y="605" type="curve" smooth="yes"/>
      <point x="288" y="638"/>
      <point x="308" y="653"/>
      <point x="348" y="653" type="curve" smooth="yes"/>
      <point x="371" y="653" type="line"/>
      <point x="371" y="714" type="line"/>
      <point x="-6" y="714" type="line"/>
      <point x="-6" y="653" type="line"/>
      <point x="7" y="653" type="line" smooth="yes"/>
      <point x="46" y="653"/>
      <point x="66" y="642"/>
      <point x="78" y="600" type="curve" smooth="yes"/>
      <point x="114" y="478" type="line"/>
      <point x="7" y="478" type="line"/>
      <point x="7" y="410" type="line"/>
      <point x="134" y="410" type="line"/>
      <point x="149" y="361" type="line"/>
      <point x="7" y="361" type="line"/>
      <point x="7" y="293" type="line"/>
      <point x="172" y="293" type="line"/>
    </contour>
    <contour>
      <point x="389" y="207" type="line"/>
      <point x="368" y="293" type="line"/>
      <point x="414" y="293" type="line"/>
    </contour>
    <contour>
      <point x="348" y="361" type="line"/>
      <point x="334" y="410" type="line"/>
      <point x="449" y="410" type="line"/>
      <point x="435" y="361" type="line"/>
    </contour>
    <contour>
      <point x="818" y="202" type="line"/>
      <point x="792" y="293" type="line"/>
      <point x="841" y="293" type="line"/>
    </contour>
    <contour>
      <point x="517" y="361" type="line"/>
      <point x="531" y="410" type="line"/>
      <point x="595" y="410" type="line"/>
      <point x="608" y="361" type="line"/>
    </contour>
    <contour>
      <point x="548" y="478" type="line"/>
      <point x="564" y="549" type="line"/>
      <point x="579" y="478" type="line"/>
    </contour>
    <contour>
      <point x="769" y="361" type="line"/>
      <point x="754" y="410" type="line"/>
      <point x="867" y="410" type="line"/>
      <point x="856" y="361" type="line"/>
    </contour>
  </outline>
</glyph>
<glyph name="uniA671" format="2">
  <unicode hex="A671"/>
  <outline>
    <contour>
      <point x="-289" y="579" type="line"/>
      <point x="-230" y="579" type="line"/>
      <point x="-230" y="678" type="line"/>
      <point x="229" y="678" type="line"/>
      <point x="229" y="579" type="line"/>
      <point x="288" y="579" type="line"/>
      <point x="288" y="761" type="line"/>
      <point x="-289" y="761" type="line"/>
    </contour>
    <contour>
      <point x="-289" y="-225" type="line"/>
      <point x="288" y="-225" type="line"/>
      <point x="288" y="-43" type="line"/>
      <point x="229" y="-43" type="line"/>
      <point x="229" y="-142" type="line"/>
      <point x="-230" y="-142" type="line"/>
      <point x="-230" y="-43" type="line"/>
      <point x="-289" y="-43" type="line"/>
    </contour>
  </outline>
</glyph>
<glyph name="uniA745" format="2">
  <advance width="674"/>
  <unicode hex="A745"/>
  <anchor x="337" y="0" name="bottom"/>
  <anchor x="337" y="760" name="top"/>
  <anchor x="654" y="760" name="topright"/>
  <outline>
    <contour>
      <point x="341" y="79" type="line"/>
      <point x="604" y="268" type="line"/>
      <point x="565" y="318" type="line"/>
      <point x="303" y="131" type="line"/>
    </contour>
    <contour>
      <point x="16" y="570" type="line"/>
      <point x="398" y="570" type="line"/>
      <point x="398" y="635" type="line"/>
      <point x="16" y="635" type="line"/>
    </contour>
    <component base="k"/>
  </outline>
</glyph>
<glyph name="uniA764" format="2">
  <advance width="663"/>
  <unicode hex="A764"/>
  <outline>
    <contour>
      <point x="21" y="0" type="line"/>
      <point x="406" y="0" type="line"/>
      <point x="406" y="61" type="line"/>
      <point x="361" y="61" type="line" smooth="yes"/>
      <point x="331" y="61"/>
      <point x="313" y="81"/>
      <point x="313" y="110" type="curve" smooth="yes"/>
      <point x="313" y="147" type="line"/>
      <point x="325" y="147" type="line" smooth="yes"/>
      <point x="574" y="147"/>
      <point x="640" y="224"/>
      <point x="640" y="325" type="curve" smooth="yes"/>
      <point x="640" y="437"/>
      <point x="565" y="487"/>
      <point x="347" y="487" type="curve" smooth="yes"/>
      <point x="313" y="487" type="line"/>
      <point x="313" y="542" type="line"/>
      <point x="398" y="542" type="line"/>
      <point x="398" y="605" type="line"/>
      <point x="313" y="605" type="line"/>
      <point x="315" y="634"/>
      <point x="329" y="653"/>
      <point x="361" y="653" type="curve" smooth="yes"/>
      <point x="406" y="653" type="line"/>
      <point x="406" y="714" type="line"/>
      <point x="21" y="714" type="line"/>
      <point x="21" y="653" type="line"/>
      <point x="64" y="653" type="line" smooth="yes"/>
      <point x="91" y="653"/>
      <point x="111" y="638"/>
      <point x="113" y="605" type="curve"/>
      <point x="21" y="605" type="line"/>
      <point x="21" y="542" type="line"/>
      <point x="113" y="542" type="line"/>
      <point x="113" y="108" type="line" smooth="yes"/>
      <point x="113" y="78"/>
      <point x="92" y="61"/>
      <point x="64" y="61" type="curve" smooth="yes"/>
      <point x="21" y="61" type="line"/>
    </contour>
    <contour>
      <point x="313" y="213" type="line"/>
      <point x="313" y="419" type="line"/>
      <point x="330" y="419" type="line" smooth="yes"/>
      <point x="401" y="419"/>
      <point x="427" y="384"/>
      <point x="427" y="321" type="curve" smooth="yes"/>
      <point x="427" y="246"/>
      <point x="397" y="213"/>
      <point x="327" y="213" type="curve" smooth="yes"/>
    </contour>
  </outline>
</glyph>
<glyph name="uniA7AE" format="2">
  <advance width="582"/>
  <unicode hex="A7AE"/>
  <outline>
    <contour>
      <point x="16" y="0" type="line"/>
      <point x="566" y="0" type="line"/>
      <point x="572" y="198" type="line"/>
      <point x="488" y="198" type="line"/>
      <point x="483" y="155" type="line" smooth="yes"/>
      <point x="476" y="92"/>
      <point x="464" y="74"/>
      <point x="409" y="74" type="curve" smooth="yes"/>
      <point x="388" y="74" type="line"/>
      <point x="388" y="462" type="line"/>
      <point x="411" y="462" type="line" smooth="yes"/>
      <point x="462" y="462"/>
      <point x="476" y="444"/>
      <point x="483" y="381" type="curve" smooth="yes"/>
      <point x="488" y="338" type="line"/>
      <point x="572" y="338" type="line"/>
      <point x="566" y="536" type="line"/>
      <point x="16" y="536" type="line"/>
      <point x="10" y="338" type="line"/>
      <point x="94" y="338" type="line"/>
      <point x="99" y="381" type="line" smooth="yes"/>
      <point x="106" y="444"/>
      <point x="118" y="462"/>
      <point x="173" y="462" type="curve" smooth="yes"/>
      <point x="193" y="462" type="line"/>
      <point x="193" y="74" type="line"/>
      <point x="171" y="74" type="line" smooth="yes"/>
      <point x="120" y="74"/>
      <point x="106" y="92"/>
      <point x="99" y="155" type="curve" smooth="yes"/>
      <point x="94" y="198" type="line"/>
      <point x="10" y="198" type="line"/>
    </contour>
  </outline>
</glyph>
<glyph name="uniA7FF" format="2">
  <advance width="991"/>
  <unicode hex="A7FF"/>
  <outline>
    <contour>
      <point x="1" y="0" type="line"/>
      <point x="241" y="0" type="line"/>
      <point x="241" y="61" type="line"/>
      <point x="234" y="61" type="line" smooth="yes"/>
      <point x="190" y="61"/>
      <point x="168" y="76"/>
      <point x="168" y="110" type="curve" smooth="yes"/>
      <point x="168" y="121"/>
      <point x="172" y="143"/>
      <point x="177" y="160" type="curve" smooth="yes"/>
      <point x="210" y="275" type="line" smooth="yes"/>
      <point x="218" y="302"/>
      <point x="223" y="320"/>
      <point x="228" y="350" type="curve"/>
      <point x="232" y="350" type="line"/>
      <point x="234" y="331"/>
      <point x="239" y="304"/>
      <point x="246" y="281" type="curve" smooth="yes"/>
      <point x="329" y="0" type="line"/>
      <point x="451" y="0" type="line"/>
      <point x="550" y="341" type="line"/>
      <point x="651" y="0" type="line"/>
      <point x="773" y="0" type="line"/>
      <point x="902" y="397" type="line" smooth="yes"/>
      <point x="923" y="460"/>
      <point x="938" y="475"/>
      <point x="977" y="475" type="curve" smooth="yes"/>
      <point x="990" y="475" type="line"/>
      <point x="990" y="536" type="line"/>
      <point x="750" y="536" type="line"/>
      <point x="750" y="475" type="line"/>
      <point x="757" y="475" type="line" smooth="yes"/>
      <point x="801" y="475"/>
      <point x="823" y="460"/>
      <point x="823" y="426" type="curve" smooth="yes"/>
      <point x="823" y="415"/>
      <point x="819" y="393"/>
      <point x="814" y="376" type="curve" smooth="yes"/>
      <point x="781" y="261" type="line" smooth="yes"/>
      <point x="773" y="234"/>
      <point x="768" y="216"/>
      <point x="763" y="186" type="curve"/>
      <point x="759" y="186" type="line"/>
      <point x="757" y="205"/>
      <point x="752" y="232"/>
      <point x="745" y="255" type="curve" smooth="yes"/>
      <point x="656" y="536" type="line"/>
      <point x="540" y="536" type="line"/>
      <point x="454" y="261" type="line" smooth="yes"/>
      <point x="446" y="234"/>
      <point x="441" y="216"/>
      <point x="436" y="186" type="curve"/>
      <point x="432" y="186" type="line"/>
      <point x="430" y="205"/>
      <point x="425" y="232"/>
      <point x="418" y="255" type="curve" smooth="yes"/>
      <point x="340" y="536" type="line"/>
      <point x="218" y="536" type="line"/>
      <point x="89" y="139" type="line" smooth="yes"/>
      <point x="68" y="76"/>
      <point x="53" y="61"/>
      <point x="14" y="61" type="curve" smooth="yes"/>
      <point x="1" y="61" type="line"/>
    </contour>
  </outline>
</glyph>
<glyph name="uniAB60" format="2">
  <advance width="997"/>
  <unicode hex="AB60"/>
  <outline>
    <contour>
      <point x="396" y="0" type="line"/>
      <point x="751" y="0" type="line" smooth="yes"/>
      <point x="912" y="0"/>
      <point x="989" y="68"/>
      <point x="989" y="160" type="curve" smooth="yes"/>
      <point x="989" y="286"/>
      <point x="883" y="310"/>
      <point x="760" y="310" type="curve" smooth="yes"/>
      <point x="665" y="310" type="line"/>
      <point x="665" y="404" type="line" smooth="yes"/>
      <point x="665" y="442"/>
      <point x="683" y="468"/>
      <point x="737" y="468" type="curve" smooth="yes"/>
      <point x="750" y="468" type="line"/>
      <point x="750" y="536" type="line"/>
      <point x="396" y="536" type="line"/>
      <point x="396" y="475" type="line"/>
      <point x="406" y="475" type="line" smooth="yes"/>
      <point x="455" y="475"/>
      <point x="470" y="449"/>
      <point x="470" y="402" type="curve" smooth="yes"/>
      <point x="470" y="123" type="line" smooth="yes"/>
      <point x="470" y="83"/>
      <point x="458" y="61"/>
      <point x="406" y="61" type="curve" smooth="yes"/>
      <point x="396" y="61" type="line"/>
    </contour>
    <contour>
      <point x="14" y="0" type="line"/>
      <point x="355" y="0" type="line"/>
      <point x="355" y="61" type="line"/>
      <point x="344" y="61" type="line" smooth="yes"/>
      <point x="306" y="61"/>
      <point x="281" y="79"/>
      <point x="281" y="125" type="curve" smooth="yes"/>
      <point x="281" y="411" type="line" smooth="yes"/>
      <point x="281" y="460"/>
      <point x="306" y="475"/>
      <point x="344" y="475" type="curve" smooth="yes"/>
      <point x="355" y="475" type="line"/>
      <point x="355" y="536" type="line"/>
      <point x="14" y="536" type="line"/>
      <point x="14" y="475" type="line"/>
      <point x="25" y="475" type="line" smooth="yes"/>
      <point x="63" y="475"/>
      <point x="86" y="461"/>
      <point x="86" y="412" type="curve" smooth="yes"/>
      <point x="86" y="125" type="line" smooth="yes"/>
      <point x="86" y="74"/>
      <point x="64" y="61"/>
      <point x="25" y="61" type="curve" smooth="yes"/>
      <point x="14" y="61" type="line"/>
    </contour>
    <contour>
      <point x="664" y="67" type="line"/>
      <point x="664" y="243" type="line"/>
      <point x="697" y="243" type="line" smooth="yes"/>
      <point x="751" y="243"/>
      <point x="789" y="221"/>
      <point x="789" y="161" type="curve" smooth="yes"/>
      <point x="789" y="93"/>
      <point x="758" y="67"/>
      <point x="699" y="67" type="curve" smooth="yes"/>
    </contour>
  </outline>
</glyph>
<glyph name="uniFE21" format="2">
  <unicode hex="FE21"/>
  <anchor x="-2" y="536" name="_top"/>
  <outline>
    <contour>
      <point x="305" y="593" type="curve"/>
      <point x="386" y="593" type="line"/>
      <point x="331" y="731"/>
      <point x="185" y="807"/>
      <point x="10" y="807" type="curve" smooth="yes"/>
      <point x="-2" y="807" type="line"/>
      <point x="-2" y="714" type="line"/>
      <point x="154" y="714"/>
      <point x="230" y="684"/>
    </contour>
  </outline>
</glyph>
<glyph name="uniFE22" format="2">
  <unicode hex="FE22"/>
  <anchor x="3" y="536" name="_top"/>
  <outline>
    <contour>
      <point x="-384" y="591" type="curve"/>
      <point x="-313" y="591" type="line"/>
      <point x="-289" y="643"/>
      <point x="-250" y="665"/>
      <point x="-184" y="665" type="curve" smooth="yes"/>
      <point x="-107" y="665"/>
      <point x="-68" y="644"/>
      <point x="3" y="626" type="curve"/>
      <point x="3" y="718" type="line"/>
      <point x="-57" y="733"/>
      <point x="-126" y="748"/>
      <point x="-188" y="748" type="curve" smooth="yes"/>
      <point x="-322" y="748"/>
      <point x="-364" y="667"/>
    </contour>
  </outline>
</glyph>
<glyph name="uniFE23" format="2">
  <unicode hex="FE23"/>
  <anchor x="-3" y="536" name="_top"/>
  <outline>
    <contour>
      <point x="188" y="597" type="curve" smooth="yes"/>
      <point x="322" y="597"/>
      <point x="364" y="678"/>
      <point x="384" y="754" type="curve"/>
      <point x="313" y="754" type="line"/>
      <point x="289" y="702"/>
      <point x="250" y="680"/>
      <point x="184" y="680" type="curve" smooth="yes"/>
      <point x="107" y="680"/>
      <point x="68" y="701"/>
      <point x="-3" y="719" type="curve"/>
      <point x="-3" y="627" type="line"/>
      <point x="57" y="612"/>
      <point x="126" y="597"/>
    </contour>
  </outline>
</glyph>
<glyph name="uniFE27" format="2">
  <unicode hex="FE27"/>
  <anchor x="0" y="0" name="_bottom"/>
  <anchor x="-203" y="536" name="braceleft"/>
  <outline>
    <contour>
      <point x="0" y="-217" type="curve"/>
      <point x="0" y="-137" type="line"/>
      <point x="-165" y="-137"/>
      <point x="-278" y="-103"/>
      <point x="-333" y="-26" type="curve"/>
      <point x="-405" y="-26" type="line"/>
      <point x="-326" y="-167"/>
      <point x="-194" y="-217"/>
    </contour>
  </outline>
</glyph>
<glyph name="uniFE29" format="2">
  <unicode hex="FE29"/>
  <anchor x="0" y="0" name="_bottom"/>
  <anchor x="-205" y="536" name="braceleft"/>
  <outline>
    <contour>
      <point x="-409" y="-206" type="curve"/>
      <point x="-345" y="-206" type="line"/>
      <point x="-328" y="-181"/>
      <point x="-306" y="-163"/>
      <point x="-283" y="-152" type="curve" smooth="yes"/>
      <point x="-260" y="-142"/>
      <point x="-241" y="-137"/>
      <point x="-221" y="-137" type="curve" smooth="yes"/>
      <point x="-173" y="-137"/>
      <point x="-109" y="-150"/>
      <point x="0" y="-177" type="curve"/>
      <point x="0" y="-88" type="line"/>
      <point x="-79" y="-67"/>
      <point x="-152" y="-57"/>
      <point x="-218" y="-57" type="curve" smooth="yes"/>
      <point x="-316" y="-57"/>
      <point x="-384" y="-112"/>
    </contour>
  </outline>
</glyph>
<glyph name="uniFE2A" format="2">
  <unicode hex="FE2A"/>
  <anchor x="0" y="0" name="_bottom"/>
  <anchor x="204" y="536" name="braceleft"/>
  <outline>
    <contour>
      <point x="220" y="-207" type="curve" smooth="yes"/>
      <point x="310" y="-207"/>
      <point x="380" y="-151"/>
      <point x="408" y="-57" type="curve"/>
      <point x="344" y="-57" type="line"/>
      <point x="324" y="-85"/>
      <point x="302" y="-104"/>
      <point x="282" y="-114" type="curve"/>
      <point x="262" y="-122"/>
      <point x="244" y="-126"/>
      <point x="220" y="-126" type="curve" smooth="yes"/>
      <point x="171" y="-126"/>
      <point x="106" y="-113"/>
      <point x="0" y="-87" type="curve"/>
      <point x="0" y="-175" type="line"/>
      <point x="77" y="-197"/>
      <point x="153" y="-207"/>
    </contour>
  </outline>
</glyph>
<glyph name="uniFE2B" format="2">
  <unicode hex="FE2B"/>
  <anchor x="0" y="0" name="_bottom"/>
  <anchor x="199" y="536" name="braceleft"/>
  <outline>
    <contour>
      <point x="0" y="-211" type="line"/>
      <point x="398" y="-211" type="line"/>
      <point x="398" y="-132" type="line"/>
      <point x="0" y="-132" type="line"/>
    </contour>
  </outline>
</glyph>
<glyph name="uniFE2E" format="2">
  <unicode hex="FE2E"/>
  <anchor x="-85" y="536" name="_top"/>
  <outline>
    <contour>
      <point x="-85" y="567" type="curve" smooth="yes"/>
      <point x="-52" y="567"/>
      <point x="-37" y="590"/>
      <point x="-33" y="616" type="curve"/>
      <point x="139" y="616" type="line"/>
      <point x="139" y="686" type="line"/>
      <point x="-84" y="686" type="line" smooth="yes"/>
      <point x="-122" y="686"/>
      <point x="-139" y="656"/>
      <point x="-139" y="622" type="curve" smooth="yes"/>
      <point x="-139" y="585"/>
      <point x="-125" y="567"/>
    </contour>
  </outline>
</glyph>
<glyph name="uniFE2F" format="2">
  <unicode hex="FE2F"/>
  <anchor x="85" y="536" name="_top"/>
  <outline>
    <contour>
      <point x="-139" y="616" type="line"/>
      <point x="84" y="616" type="line" smooth="yes"/>
      <point x="121" y="616"/>
      <point x="139" y="644"/>
      <point x="139" y="680" type="curve" smooth="yes"/>
      <point x="139" y="717"/>
      <point x="124" y="736"/>
      <point x="85" y="736" type="curve" smooth="yes"/>
      <point x="53" y="736"/>
      <point x="38" y="712"/>
      <point x="34" y="686" type="curve"/>
      <point x="-139" y="686" type="line"/>
    </contour>
  </outline>
</glyph>
